<?xml version="1.0" encoding="utf-8"?>
<!-- Generator: Adobe Illustrator 21.1.0, SVG Export Plug-In . SVG Version: 6.00 Build 0)  -->
<svg version="1.1" id="圖層_1" xmlns="http://www.w3.org/2000/svg" xmlns:xlink="http://www.w3.org/1999/xlink" x="0px" y="0px"
	 viewBox="0 0 156.8 119" style="enable-background:new 0 0 156.8 119;" xml:space="preserve">
<style type="text/css">
	.st0{fill:#00A0E9;}
	.st1{fill:#FFFFFF;}
	.st2{fill:#050202;}
	.st3{fill:#C95043;}
	.st4{fill:#FFF100;}
</style>
<g>
	<g>
		<path class="st0" d="M148.5,67.3C49.5,168.7,33.2,35,33.2,35L148.5,67.3z"/>
		<path class="st0" d="M148.5,67.3c-4.6,5.5-9.5,10.7-14.7,15.6c-5.2,4.9-10.8,9.6-16.8,13.6c-3,2-6.1,3.9-9.4,5.6
			c-3.3,1.7-6.7,3.1-10.3,4.2c-3.6,1.1-7.3,1.9-11.2,2.2c-3.8,0.3-7.8,0-11.6-0.9c-3.8-0.9-7.5-2.4-10.8-4.4c-3.4-2-6.4-4.5-9.1-7.2
			c-5.4-5.5-9.5-11.9-12.8-18.5c-3.3-6.6-5.8-13.5-7.9-20.6c-1-3.5-1.9-7.1-2.6-10.6c-0.7-3.6-1.4-7.1-1.8-10.9l4.8-4.1
			c9.8,2.9,19.7,5.8,29.4,8.8c9.7,3,19.5,6.1,29,9.2l28.3,9.2L148.5,67.3z M148.5,67.3l-15.2-3.7l-15-3.6L89,53
			c-9.6-2.3-19.1-4.7-28.6-7c-9.4-2.4-18.8-4.8-28.2-7.3l4.8-4.1c0.5,3.3,1.2,6.8,1.9,10.1c0.8,3.4,1.7,6.7,2.6,10.1
			c2,6.6,4.4,13.1,7.4,19.3c3,6.1,6.6,11.9,11.2,16.7c4.5,4.8,10,8.5,16.1,10.2c6.2,1.7,12.9,1.4,19.4-0.2c3.3-0.8,6.5-2,9.6-3.3
			c3.2-1.3,6.3-2.9,9.3-4.6C126.7,85.7,137.8,76.7,148.5,67.3z"/>
	</g>
	<path class="st1" d="M26.3,39.9c0-0.2,0.1-0.4,0.1-0.6C26.4,39.5,26.4,39.7,26.3,39.9z M26.7,36.5c0,0.6-0.1,1.1-0.1,1.5
		C26.6,37.6,26.7,37.1,26.7,36.5L26.7,36.5z"/>
	<path class="st2" d="M141.4,92L141.4,92L141.4,92C141.4,92,141.4,92,141.4,92C141.4,91.9,141.4,91.9,141.4,92z"/>
	<path class="st2" d="M148.1,58.4c-2.5-0.9-5-1.4-7.6-1.6c-11.3-1.2-22.4-3.1-33.3-6.1c-21.9-6-43.6-12.5-65.6-17.9
		c-5.1-1.2-7.4-3.8-8.1-8.9c-0.8-5.6-2.1-11.2-3.7-16.6c-0.3-1-0.8-1.7-2-1.8c-1.2,0-2.1,0.4-2.6,1.6c-0.4,0.8-0.3,1.7-0.1,2.5
		c1.2,5.7,2.3,11.3,3.4,17c0.5,2.6-0.3,3.3-3,2.7c-2.3-0.3-4.7-0.1-6.7-1.5c-0.6-0.4-1.2-0.2-1.8-0.2c-3.5,0-7,0.2-10.4-0.4
		c-1.7,0.1-2.6,1.3-3.6,2.4c-1,1.3-0.9,2.5,0.2,3.7c1,1.1,2.3,1.4,3.7,1.7c3.8,0.2,7.6,0.5,11.4,0.8c2.8,0.2,5.7,0.5,8.5,0.8h0
		c3.6,0.4,4.2,1,4.8,4.7c0.2,1,0.3,1.9,0.5,2.9c1.4,5.5,2.9,11,4.4,16.4c2.1,5.9,3.9,11.9,6.4,17.6c3.7,8.4,7.9,16.6,13.7,23.9
		c5.8,7.2,12.8,12.5,22,14.5c8.2,1.7,16.3,1,24-2.1c9.7-3.8,19-8.5,27.8-14.1c3.4-2.2,6.6-4.7,9.5-7.4c0.4-0.4,0.7-1.1,1.5-0.8
		c0,0,0,0,0,0c0-0.1,0-0.1-0.1-0.1c0-0.1,0-0.2,0-0.2c0,0,0,0,0,0c0,0,0,0,0,0c0,0,0.1-0.1,0.1-0.1c0.1,0,0.2-0.1,0.3-0.1
		c0,0,0.1,0,0.1,0c0.4-0.5,0.8-1.1,1.3-1.6c5.4-5.8,9.3-12.4,10.9-20.2C155.3,63.8,153.4,60.4,148.1,58.4z M97.2,110.6
		c-13.9,3-25-2-34.3-12c-5.7-6.1-9.7-13.4-13-21c-4.4-9.8-7.2-20.2-9.7-30.6c-0.2-1-0.6-2-1.1-2.9c-0.9-1.5-1.2-2.8-1.2-4.6
		c1.8,2,3.4,3.9,5.3,5.5c5.9,5.2,12.6,9,19.7,12.3C74.5,62.8,86.4,67.9,99.1,71c0.2,0.1,0.4,0.2,0.8,0.3c-12.1,10-7.5,30.2,10.2,35
		C105.8,108.4,101.6,109.7,97.2,110.6z M145.5,76.2c-3.7,8.3-9.6,14.6-17.3,19.3c-4.9,3-9.5,6.5-14.6,9.1c-0.6,0.3-1.2,0.7-2.1,0.2
		c-5.8-3.9-10.7-8.6-12.7-15.5c-1.7-5.8-0.7-11.3,2.2-16.6c0.5-0.9,1.1-0.9,2-0.8c5.4,1.1,10.8,1.8,16.3,1.8
		c0.3,0.6,0.5,1.1,0.8,1.7c2,3.8,6.6,5.4,10.4,3.6c3-1.4,4.3-3.9,4.9-7c4.5-1,8.7-2.6,13.2-4.8C147.7,70.5,146.7,73.4,145.5,76.2z"
		/>
	<path class="st2" d="M135.3,72c-0.5,3.1-1.8,5.7-4.9,7c-3.9,1.8-8.5,0.2-10.4-3.6c-0.3-0.6-0.5-1.1-0.8-1.7v0
		c-0.5-3.5,0.4-6.5,3.4-8.6c4.8-3.4,11.5-0.4,12.5,5.5C135.2,71.1,135.2,71.6,135.3,72z"/>
	<path class="st0" d="M25.4,29.3c-2.3-0.3-4.7-0.1-6.7-1.5c-0.6-0.4-1.2-0.2-1.8-0.2c-3.5,0-7,0.2-10.4-0.4
		c3.7-5.5,7.5-10.9,12-15.7c0.1-0.1,0.3-0.2,0.4-0.3c2.2-1.9,3.5-1.5,4.2,1.3c0.8,3.2,1,6.5,1.4,9.7C24.8,24.5,25.1,26.9,25.4,29.3z
		"/>
	<path class="st0" d="M26.7,36.5c0,0.6-0.1,1.1-0.1,1.5c0,0.1,0,0.3,0,0.4c0,0.3-0.1,0.5-0.1,0.8c0,0.3-0.1,0.6-0.2,0.8
		c0,0.1-0.1,0.2-0.1,0.3c0,0.1-0.1,0.2-0.1,0.3c0,0.1-0.1,0.1-0.1,0.2c-0.1,0.1-0.2,0.2-0.3,0.3c-0.1,0-0.1,0.1-0.2,0.1
		c-0.1,0-0.1,0.1-0.2,0.1c-0.1,0-0.2,0.1-0.3,0.1c0,0-0.1,0-0.1,0c-0.4,0-1,0-1.7-0.1c-0.2,0-0.5-0.1-0.8-0.1c-0.3,0-0.6-0.1-1-0.1
		c-5.5-0.6-10.1-3.3-14.6-6.2c3.8,0.2,7.6,0.5,11.4,0.8C21.1,35.9,23.9,36.2,26.7,36.5L26.7,36.5z"/>
	<path class="st3" d="M141.9,91.2c0,0.1,0,0.3-0.1,0.4c0,0,0,0,0,0.1c0,0,0,0.1-0.1,0.1c0,0,0,0-0.1,0.1c-0.1,0-0.1,0.1-0.2,0.1h0
		c0,0,0,0,0,0c0,0,0,0,0,0c0-0.1,0-0.1-0.1-0.1c0-0.1,0-0.2,0-0.2c0,0,0,0,0,0c0,0,0,0,0,0c0,0,0.1-0.1,0.1-0.1
		c0.1,0,0.2-0.1,0.3-0.1C141.8,91.2,141.9,91.2,141.9,91.2z"/>
	<path class="st1" d="M135.1,70.7c-1-6-7.7-8.9-12.5-5.5c-3,2.1-3.9,5.1-3.4,8.6v0c0.3,0.6,0.5,1.1,0.8,1.7c2,3.8,6.6,5.4,10.4,3.6
		c3-1.4,4.3-3.9,4.9-7C135.2,71.6,135.2,71.1,135.1,70.7z M127.2,77.8c-3.2,0-6-2.7-6-6c-0.1-3.3,2.7-6.1,6-6c3.3,0,6,2.7,6,5.9
		C133.2,74.9,130.4,77.7,127.2,77.8z"/>
	<path class="st2" d="M133.1,71.6c0,3.3-2.7,6.1-5.9,6.2c-3.2,0-6-2.7-6-6c-0.1-3.3,2.7-6.1,6-6C130.4,65.7,133.1,68.4,133.1,71.6z"
		/>
	<polygon class="st4" points="101.9,5.4 100.6,33 122.7,46.6 139.6,12.6 122.7,14.4 119.8,2.6 111.9,12.8 	"/>
	<path class="st2" d="M136.9,24.3c-0.2-1.3-1.5-1.4-2.6-1.5c-0.6-0.1-1.3,0-1.9,0c-3,0.2-6,0.2-8.9,0.7c-1.7,0.2-1.8-0.5-2-1.7
		c-0.5-2.6-0.9-5.2-1.5-7.7c-0.9-4.1-3.6-5.4-7.5-3.9c-3.5,1.4-6.8,3.1-9.8,5.3c-1,0.7-1.7,0.7-2.5-0.1c-2-1.8-4.1-3.6-6.1-5.3
		c-1.1-0.9-2.2-1.9-3.4-2.7c-0.9-0.6-2-0.8-2.9,0c-0.8,0.8-1.4,1.8-0.9,3c2.5,7.6,4,15.4,5.6,23.2c0.2,1,0.5,2,0.7,3
		c0.4,2.1,1.6,3.5,3.7,4.1c4.6,1.4,9.1,2.8,13.8,3.6c1.9,0.2,3-1,4.1-2.2c6-6.3,12.5-11.9,20.4-15.6C136,26.1,137.1,25.5,136.9,24.3
		z M113.8,36.6c-0.6,0.7-1.2,1-2.1,0.9c-3.1-0.2-6.2-0.4-9.3-0.6c-0.9-0.1-1.3-0.6-1.7-1.5c-1.7-4.3-3.5-8.6-5.3-12.9
		c0.9-0.5,1.5,0.2,2.1,0.6c3.1,2,4,1.9,6.5-0.6c2-2.1,4-4.1,6.2-6c0.7-0.6,1.1-0.8,1.6,0.3c1.1,2.6,2.4,5.2,3.6,7.8
		c1.5,3.3,2.1,3.7,5.7,2.8c0.3-0.1,0.7-0.1,1.4-0.1C119.2,30.3,116.5,33.5,113.8,36.6z"/>
	<polygon class="st0" points="25,29.2 6.5,27.1 16.1,18.7 	"/>
</g>
</svg>
